# xmcd
#
# Track frame offsets: 
#        150
#        20764
#        42413
#        56288
#        74455
#        92444
#        115820
#        133142
#        163741
#        187735
#
# Disc length: 2693 seconds
#
# Revision: 0
# Processed by: cddbd v1.5.2PL0 Copyright (c) Steve Scherf et al.
# Submitted via: ExactAudioCopyFreeDBPlugin 1.0
#
DISCID=830a830a
DTITLE=Allez Soldaat - Als De Wolven Janken
DYEAR=2012
DGENRE=Blues
TTITLE0=Wa Ge Zei
TTITLE1=Droom
TTITLE2=Austin Texas
TTITLE3=Mooie Zondag
TTITLE4=Heul Gevecht
TTITLE5=Op Eigen Benen
TTITLE6=Dansen
TTITLE7=Huilen Naar De Maan
TTITLE8=Weg Van Hier
TTITLE9=Zoals Alleen Een Man Zwijgen Kan
EXTD=
EXTT0=
EXTT1=
EXTT2=
EXTT3=
EXTT4=
EXTT5=
EXTT6=
EXTT7=
EXTT8=
EXTT9=
PLAYORDER=
